<mxfile host="app.diagrams.net" modified="2021-08-02T08:10:21.416Z" agent="5.0 (Windows NT 10.0; Win64; x64) AppleWebKit/537.36 (KHTML, like Gecko) Chrome/92.0.4515.107 Safari/537.36 Edg/92.0.902.62" etag="ipft8kW_ENVdNH66zkTN" version="14.9.3" type="github">
  <diagram id="6a731a19-8d31-9384-78a2-239565b7b9f0" name="Page-1">
    <mxGraphModel dx="4124" dy="2244" grid="1" gridSize="10" guides="1" tooltips="1" connect="1" arrows="1" fold="1" page="1" pageScale="1" pageWidth="1169" pageHeight="827" background="none" math="0" shadow="0">
      <root>
        <mxCell id="0" />
        <mxCell id="1" parent="0" />
        <mxCell id="1353" value="引擎/工具链" style="ellipse;whiteSpace=wrap;html=1;shadow=0;fontFamily=Helvetica;fontSize=20;fontColor=#FFFFFF;align=center;strokeWidth=3;fillColor=#1699D3;strokeColor=none;" parent="1" vertex="1">
          <mxGeometry x="630" y="590" width="120" height="120" as="geometry" />
        </mxCell>
        <mxCell id="1362" style="endArrow=none;strokeWidth=6;strokeColor=#1699D3;html=1;" parent="1" source="1515" target="1353" edge="1">
          <mxGeometry relative="1" as="geometry" />
        </mxCell>
        <mxCell id="1435" value="Perch" style="rounded=1;fillColor=#64BBE2;strokeColor=none;strokeWidth=3;shadow=0;html=1;fontColor=#FFFFFF;" parent="1" vertex="1">
          <mxGeometry x="85" y="960" width="120" height="40" as="geometry" />
        </mxCell>
        <mxCell id="1436" value="Mackerel" style="rounded=1;fillColor=#64BBE2;strokeColor=none;strokeWidth=3;shadow=0;html=1;fontColor=#FFFFFF;" parent="1" vertex="1">
          <mxGeometry x="115" y="890" width="120" height="40" as="geometry" />
        </mxCell>
        <mxCell id="1437" value="Tuna" style="rounded=1;fillColor=#64BBE2;strokeColor=none;strokeWidth=3;shadow=0;html=1;fontColor=#FFFFFF;" parent="1" vertex="1">
          <mxGeometry x="240" y="860" width="120" height="40" as="geometry" />
        </mxCell>
        <mxCell id="1438" value="Shark" style="rounded=1;fillColor=#64BBE2;strokeColor=none;strokeWidth=3;shadow=0;html=1;fontColor=#FFFFFF;" parent="1" vertex="1">
          <mxGeometry x="360" y="810" width="120" height="40" as="geometry" />
        </mxCell>
        <mxCell id="1439" value="Whale" style="rounded=1;fillColor=#64BBE2;strokeColor=none;strokeWidth=3;shadow=0;html=1;fontColor=#FFFFFF;" parent="1" vertex="1">
          <mxGeometry x="405" y="900" width="120" height="40" as="geometry" />
        </mxCell>
        <mxCell id="1440" value="Bass" style="rounded=1;fillColor=#64BBE2;strokeColor=none;strokeWidth=3;shadow=0;html=1;fontColor=#FFFFFF;" parent="1" vertex="1">
          <mxGeometry x="475" y="980" width="120" height="40" as="geometry" />
        </mxCell>
        <mxCell id="1441" value="Eel" style="rounded=1;fillColor=#64BBE2;strokeColor=none;strokeWidth=3;shadow=0;html=1;fontColor=#FFFFFF;" parent="1" vertex="1">
          <mxGeometry x="285" y="1050" width="120" height="40" as="geometry" />
        </mxCell>
        <mxCell id="1442" value="Oyster" style="rounded=1;fillColor=#64BBE2;strokeColor=none;strokeWidth=3;shadow=0;html=1;fontColor=#FFFFFF;" parent="1" vertex="1">
          <mxGeometry x="485" y="1065" width="120" height="40" as="geometry" />
        </mxCell>
        <mxCell id="1443" value="Ray" style="rounded=1;fillColor=#64BBE2;strokeColor=none;strokeWidth=3;shadow=0;html=1;fontColor=#FFFFFF;" parent="1" vertex="1">
          <mxGeometry x="285" y="1210" width="120" height="40" as="geometry" />
        </mxCell>
        <mxCell id="1444" value="Trout" style="rounded=1;fillColor=#64BBE2;strokeColor=none;strokeWidth=3;shadow=0;html=1;fontColor=#FFFFFF;" parent="1" vertex="1">
          <mxGeometry x="160" y="1150" width="120" height="40" as="geometry" />
        </mxCell>
        <mxCell id="1445" value="Catfish" style="rounded=1;fillColor=#64BBE2;strokeColor=none;strokeWidth=3;shadow=0;html=1;fontColor=#FFFFFF;" parent="1" vertex="1">
          <mxGeometry x="60" y="1085" width="120" height="40" as="geometry" />
        </mxCell>
        <mxCell id="1446" value="" style="edgeStyle=none;endArrow=none;strokeWidth=3;strokeColor=#64BBE2;html=1;" parent="1" source="1353" target="1435" edge="1">
          <mxGeometry x="-1500" y="270" width="100" height="100" as="geometry">
            <mxPoint x="-1500" y="370" as="sourcePoint" />
            <mxPoint x="-1400" y="270" as="targetPoint" />
          </mxGeometry>
        </mxCell>
        <mxCell id="1447" value="" style="edgeStyle=none;endArrow=none;strokeWidth=3;strokeColor=#64BBE2;html=1;" parent="1" source="1353" target="1436" edge="1">
          <mxGeometry x="-1500" y="270" width="100" height="100" as="geometry">
            <mxPoint x="-1500" y="370" as="sourcePoint" />
            <mxPoint x="-1400" y="270" as="targetPoint" />
          </mxGeometry>
        </mxCell>
        <mxCell id="1448" value="" style="edgeStyle=none;endArrow=none;strokeWidth=3;strokeColor=#64BBE2;html=1;" parent="1" source="1353" target="1437" edge="1">
          <mxGeometry x="-1500" y="270" width="100" height="100" as="geometry">
            <mxPoint x="-1500" y="370" as="sourcePoint" />
            <mxPoint x="-1400" y="270" as="targetPoint" />
          </mxGeometry>
        </mxCell>
        <mxCell id="1449" value="" style="edgeStyle=none;endArrow=none;strokeWidth=3;strokeColor=#64BBE2;html=1;" parent="1" source="1353" target="1438" edge="1">
          <mxGeometry x="-1500" y="270" width="100" height="100" as="geometry">
            <mxPoint x="-1500" y="370" as="sourcePoint" />
            <mxPoint x="-1400" y="270" as="targetPoint" />
          </mxGeometry>
        </mxCell>
        <mxCell id="1450" value="" style="edgeStyle=none;endArrow=none;strokeWidth=3;strokeColor=#64BBE2;html=1;" parent="1" source="1353" target="1439" edge="1">
          <mxGeometry x="-1500" y="270" width="100" height="100" as="geometry">
            <mxPoint x="-1500" y="370" as="sourcePoint" />
            <mxPoint x="-1400" y="270" as="targetPoint" />
          </mxGeometry>
        </mxCell>
        <mxCell id="1451" value="" style="edgeStyle=none;endArrow=none;strokeWidth=3;strokeColor=#64BBE2;html=1;" parent="1" source="1353" target="1440" edge="1">
          <mxGeometry x="-1500" y="270" width="100" height="100" as="geometry">
            <mxPoint x="-1500" y="370" as="sourcePoint" />
            <mxPoint x="-1400" y="270" as="targetPoint" />
          </mxGeometry>
        </mxCell>
        <mxCell id="1452" value="" style="edgeStyle=none;endArrow=none;strokeWidth=3;strokeColor=#64BBE2;html=1;" parent="1" source="1353" target="1442" edge="1">
          <mxGeometry x="-1500" y="270" width="100" height="100" as="geometry">
            <mxPoint x="-1500" y="370" as="sourcePoint" />
            <mxPoint x="-1400" y="270" as="targetPoint" />
          </mxGeometry>
        </mxCell>
        <mxCell id="1453" value="" style="edgeStyle=none;endArrow=none;strokeWidth=3;strokeColor=#64BBE2;html=1;" parent="1" source="1353" target="1441" edge="1">
          <mxGeometry x="-1500" y="270" width="100" height="100" as="geometry">
            <mxPoint x="-1500" y="370" as="sourcePoint" />
            <mxPoint x="-1400" y="270" as="targetPoint" />
          </mxGeometry>
        </mxCell>
        <mxCell id="1454" value="" style="edgeStyle=none;endArrow=none;strokeWidth=3;strokeColor=#64BBE2;html=1;" parent="1" source="1353" target="1443" edge="1">
          <mxGeometry x="-1500" y="270" width="100" height="100" as="geometry">
            <mxPoint x="-1500" y="370" as="sourcePoint" />
            <mxPoint x="-1400" y="270" as="targetPoint" />
          </mxGeometry>
        </mxCell>
        <mxCell id="1455" value="" style="edgeStyle=none;endArrow=none;strokeWidth=3;strokeColor=#64BBE2;html=1;" parent="1" source="1353" target="1444" edge="1">
          <mxGeometry x="-1500" y="270" width="100" height="100" as="geometry">
            <mxPoint x="-1500" y="370" as="sourcePoint" />
            <mxPoint x="-1400" y="270" as="targetPoint" />
          </mxGeometry>
        </mxCell>
        <mxCell id="1456" value="" style="edgeStyle=none;endArrow=none;strokeWidth=3;strokeColor=#64BBE2;html=1;" parent="1" source="1353" target="1445" edge="1">
          <mxGeometry x="-1500" y="270" width="100" height="100" as="geometry">
            <mxPoint x="-1500" y="370" as="sourcePoint" />
            <mxPoint x="-1400" y="270" as="targetPoint" />
          </mxGeometry>
        </mxCell>
        <mxCell id="1515" value="玩法" style="ellipse;whiteSpace=wrap;html=1;shadow=0;fontFamily=Helvetica;fontSize=30;fontColor=#2F5B7C;align=center;strokeColor=#2F5B7C;strokeWidth=6;fillColor=#FFFFFF;fontStyle=1;gradientColor=none;" parent="1" vertex="1">
          <mxGeometry x="940" y="310" width="270" height="270" as="geometry" />
        </mxCell>
        <mxCell id="Fq0rNJmHPIg_taLtKIU--1567" value="表现" style="ellipse;whiteSpace=wrap;html=1;shadow=0;fontFamily=Helvetica;fontSize=20;fontColor=#FFFFFF;align=center;strokeWidth=3;fillColor=#1699D3;strokeColor=none;" vertex="1" parent="1">
          <mxGeometry x="1730" y="520" width="120" height="120" as="geometry" />
        </mxCell>
        <mxCell id="Fq0rNJmHPIg_taLtKIU--1568" style="endArrow=none;strokeWidth=6;strokeColor=#1699D3;html=1;" edge="1" parent="1" target="Fq0rNJmHPIg_taLtKIU--1567" source="1515">
          <mxGeometry relative="1" as="geometry">
            <mxPoint x="2025.9537473470414" y="896.1866616186053" as="sourcePoint" />
          </mxGeometry>
        </mxCell>
        <mxCell id="Fq0rNJmHPIg_taLtKIU--1609" value="场景" style="ellipse;whiteSpace=wrap;html=1;shadow=0;fontFamily=Helvetica;fontSize=20;fontColor=#FFFFFF;align=center;strokeWidth=3;fillColor=#1699D3;strokeColor=none;" vertex="1" parent="1">
          <mxGeometry x="1439" y="850" width="120" height="120" as="geometry" />
        </mxCell>
        <mxCell id="Fq0rNJmHPIg_taLtKIU--1610" style="endArrow=none;strokeWidth=6;strokeColor=#1699D3;html=1;exitX=0;exitY=0.5;exitDx=0;exitDy=0;" edge="1" parent="1" target="Fq0rNJmHPIg_taLtKIU--1609" source="Fq0rNJmHPIg_taLtKIU--1567">
          <mxGeometry relative="1" as="geometry">
            <mxPoint x="1934.7408831221428" y="700.001167708064" as="sourcePoint" />
          </mxGeometry>
        </mxCell>
        <mxCell id="Fq0rNJmHPIg_taLtKIU--1633" value="角色" style="ellipse;whiteSpace=wrap;html=1;shadow=0;fontFamily=Helvetica;fontSize=20;fontColor=#FFFFFF;align=center;strokeWidth=3;fillColor=#1699D3;strokeColor=none;" vertex="1" parent="1">
          <mxGeometry x="1610" y="870" width="120" height="120" as="geometry" />
        </mxCell>
        <mxCell id="Fq0rNJmHPIg_taLtKIU--1634" style="endArrow=none;strokeWidth=6;strokeColor=#1699D3;html=1;exitX=0;exitY=1;exitDx=0;exitDy=0;" edge="1" parent="1" target="Fq0rNJmHPIg_taLtKIU--1633" source="Fq0rNJmHPIg_taLtKIU--1567">
          <mxGeometry relative="1" as="geometry">
            <mxPoint x="2057.573593128807" y="656.9564068711936" as="sourcePoint" />
          </mxGeometry>
        </mxCell>
        <mxCell id="Fq0rNJmHPIg_taLtKIU--1635" value="天气/昼夜" style="ellipse;whiteSpace=wrap;html=1;shadow=0;fontFamily=Helvetica;fontSize=20;fontColor=#FFFFFF;align=center;strokeWidth=3;fillColor=#1699D3;strokeColor=none;" vertex="1" parent="1">
          <mxGeometry x="1180" y="1125" width="120" height="120" as="geometry" />
        </mxCell>
        <mxCell id="Fq0rNJmHPIg_taLtKIU--1636" style="endArrow=none;strokeWidth=6;strokeColor=#1699D3;html=1;exitX=0;exitY=1;exitDx=0;exitDy=0;" edge="1" parent="1" target="Fq0rNJmHPIg_taLtKIU--1635" source="Fq0rNJmHPIg_taLtKIU--1609">
          <mxGeometry relative="1" as="geometry">
            <mxPoint x="1558.5735931288068" y="1039.9964068711936" as="sourcePoint" />
          </mxGeometry>
        </mxCell>
        <mxCell id="Fq0rNJmHPIg_taLtKIU--1637" value="PCG" style="ellipse;whiteSpace=wrap;html=1;shadow=0;fontFamily=Helvetica;fontSize=20;fontColor=#FFFFFF;align=center;strokeWidth=3;fillColor=#1699D3;strokeColor=none;" vertex="1" parent="1">
          <mxGeometry x="1490" y="1260" width="120" height="120" as="geometry" />
        </mxCell>
        <mxCell id="Fq0rNJmHPIg_taLtKIU--1638" style="endArrow=none;strokeWidth=6;strokeColor=#1699D3;html=1;exitX=1;exitY=1;exitDx=0;exitDy=0;" edge="1" parent="1" target="Fq0rNJmHPIg_taLtKIU--1637" source="Fq0rNJmHPIg_taLtKIU--1609">
          <mxGeometry relative="1" as="geometry">
            <mxPoint x="1882.5735931288068" y="1079.9964068711936" as="sourcePoint" />
          </mxGeometry>
        </mxCell>
        <mxCell id="Fq0rNJmHPIg_taLtKIU--1641" value="3C" style="ellipse;whiteSpace=wrap;html=1;shadow=0;fontFamily=Helvetica;fontSize=20;fontColor=#FFFFFF;align=center;strokeWidth=3;fillColor=#1699D3;strokeColor=none;" vertex="1" parent="1">
          <mxGeometry x="1600" y="1260" width="120" height="120" as="geometry" />
        </mxCell>
        <mxCell id="Fq0rNJmHPIg_taLtKIU--1642" style="endArrow=none;strokeWidth=6;strokeColor=#1699D3;html=1;exitX=0;exitY=1;exitDx=0;exitDy=0;" edge="1" parent="1" target="Fq0rNJmHPIg_taLtKIU--1641" source="Fq0rNJmHPIg_taLtKIU--1633">
          <mxGeometry relative="1" as="geometry">
            <mxPoint x="2092.573593128807" y="1049.9964068711936" as="sourcePoint" />
          </mxGeometry>
        </mxCell>
        <mxCell id="Fq0rNJmHPIg_taLtKIU--1643" value="动画" style="ellipse;whiteSpace=wrap;html=1;shadow=0;fontFamily=Helvetica;fontSize=20;fontColor=#FFFFFF;align=center;strokeWidth=3;fillColor=#1699D3;strokeColor=none;" vertex="1" parent="1">
          <mxGeometry x="1720" y="1260" width="120" height="120" as="geometry" />
        </mxCell>
        <mxCell id="Fq0rNJmHPIg_taLtKIU--1644" style="endArrow=none;strokeWidth=6;strokeColor=#1699D3;html=1;exitX=1;exitY=1;exitDx=0;exitDy=0;" edge="1" parent="1" target="Fq0rNJmHPIg_taLtKIU--1643" source="Fq0rNJmHPIg_taLtKIU--1633">
          <mxGeometry relative="1" as="geometry">
            <mxPoint x="2135" y="1067.57" as="sourcePoint" />
          </mxGeometry>
        </mxCell>
        <mxCell id="Fq0rNJmHPIg_taLtKIU--1647" value="AI" style="ellipse;whiteSpace=wrap;html=1;shadow=0;fontFamily=Helvetica;fontSize=20;fontColor=#FFFFFF;align=center;strokeWidth=3;fillColor=#1699D3;strokeColor=none;" vertex="1" parent="1">
          <mxGeometry x="1900" y="870" width="120" height="120" as="geometry" />
        </mxCell>
        <mxCell id="Fq0rNJmHPIg_taLtKIU--1648" style="endArrow=none;strokeWidth=6;strokeColor=#1699D3;html=1;exitX=1;exitY=1;exitDx=0;exitDy=0;" edge="1" parent="1" target="Fq0rNJmHPIg_taLtKIU--1647" source="Fq0rNJmHPIg_taLtKIU--1567">
          <mxGeometry relative="1" as="geometry">
            <mxPoint x="2170" y="650" as="sourcePoint" />
          </mxGeometry>
        </mxCell>
        <mxCell id="Fq0rNJmHPIg_taLtKIU--1652" value="UI" style="ellipse;whiteSpace=wrap;html=1;shadow=0;fontFamily=Helvetica;fontSize=20;fontColor=#FFFFFF;align=center;strokeWidth=3;fillColor=#1699D3;strokeColor=none;" vertex="1" parent="1">
          <mxGeometry x="2070" y="870" width="120" height="120" as="geometry" />
        </mxCell>
        <mxCell id="Fq0rNJmHPIg_taLtKIU--1653" style="endArrow=none;strokeWidth=6;strokeColor=#1699D3;html=1;exitX=1;exitY=0.5;exitDx=0;exitDy=0;" edge="1" parent="1" target="Fq0rNJmHPIg_taLtKIU--1652" source="Fq0rNJmHPIg_taLtKIU--1567">
          <mxGeometry relative="1" as="geometry">
            <mxPoint x="2059.9964068711924" y="622.4264068711927" as="sourcePoint" />
          </mxGeometry>
        </mxCell>
        <mxCell id="Fq0rNJmHPIg_taLtKIU--1656" value="物理" style="ellipse;whiteSpace=wrap;html=1;shadow=0;fontFamily=Helvetica;fontSize=20;fontColor=#FFFFFF;align=center;strokeWidth=3;fillColor=#1699D3;strokeColor=none;" vertex="1" parent="1">
          <mxGeometry x="1750" y="870" width="120" height="120" as="geometry" />
        </mxCell>
        <mxCell id="Fq0rNJmHPIg_taLtKIU--1657" style="endArrow=none;strokeWidth=6;strokeColor=#1699D3;html=1;exitX=0.5;exitY=1;exitDx=0;exitDy=0;" edge="1" parent="1" target="Fq0rNJmHPIg_taLtKIU--1656" source="Fq0rNJmHPIg_taLtKIU--1567">
          <mxGeometry relative="1" as="geometry">
            <mxPoint x="1696.2164068711927" y="626.9964068711927" as="sourcePoint" />
          </mxGeometry>
        </mxCell>
      </root>
    </mxGraphModel>
  </diagram>
</mxfile>
